<svg width="316" height="533" viewBox="0 0 316 533" fill="none" xmlns="http://www.w3.org/2000/svg">
<path d="M251.407 82.9743C273.432 59.0243 301.754 44.4061 336.188 44.4061C410.312 44.4061 468.625 110.316 468.625 203.067C468.625 258.703 443.462 304.963 396.986 354.868C386.982 365.619 356.41 396.074 355.034 397.515C350.705 401.993 346.039 406.636 341.047 411.424C334.571 417.629 327.995 423.711 321.324 429.666C307.061 442.412 291.831 455.245 276.611 467.547C269.866 473.001 263.071 478.38 256.226 483.684C252.793 486.312 248.698 487.722 244.5 487.722C240.302 487.722 236.207 486.312 232.774 483.684C225.926 478.384 219.127 473.008 212.379 467.558C197.198 455.323 182.293 442.689 167.676 429.666C161.005 423.711 154.429 417.629 147.953 411.424C142.961 406.636 138.295 401.993 133.966 397.515C132.59 396.074 102.018 365.608 92.0135 354.868C45.5483 304.963 20.375 258.714 20.375 203.067C20.375 110.304 78.6883 44.4061 152.812 44.4061C187.246 44.4061 215.568 59.0133 237.593 82.9743C240.068 85.6674 242.371 88.3605 244.5 91.0204C246.639 88.3605 248.932 85.6674 251.407 82.9853V82.9743ZM252.314 431.972C266.958 420.169 281.337 407.982 295.438 395.42C301.743 389.794 307.959 384.049 314.081 378.187C318.696 373.754 322.984 369.487 326.917 365.419C328.822 363.447 359.007 333.357 368.36 323.327C407.795 280.957 427.875 244.074 427.875 203.067C427.875 134.432 387.451 88.7373 336.188 88.7373C313.378 88.7373 295.05 98.1909 280.217 114.327C275.163 119.837 270.687 125.941 266.872 132.525C265.483 134.848 264.228 137.261 263.113 139.751C255.93 157.284 233.059 157.284 225.887 139.751C224.775 137.261 223.523 134.848 222.138 132.525C218.32 125.94 213.84 119.837 208.783 114.327C193.95 98.1909 175.622 88.7373 152.812 88.7373C101.549 88.7373 61.125 134.432 61.125 203.067C61.125 244.074 81.1944 280.957 120.64 323.316C129.982 333.357 160.178 363.447 162.083 365.419C166.016 369.487 170.304 373.754 174.919 378.187C180.686 383.728 186.92 389.491 193.563 395.42C210.164 410.216 227.15 424.493 244.5 438.233C246.986 436.25 249.594 434.166 252.314 431.972Z" fill="#F8F8F8"/>
</svg>
