<svg width="380" height="304" viewBox="0 0 380 304" fill="none" xmlns="http://www.w3.org/2000/svg">
<path fill-rule="evenodd" clip-rule="evenodd" d="M247 152C247 158.996 252.671 164.667 259.667 164.667C266.662 164.667 272.333 158.996 272.333 152C272.333 145.004 266.662 139.333 259.667 139.333C252.671 139.333 247 145.004 247 152ZM259.667 177.333C245.675 177.333 234.333 165.992 234.333 152C234.333 138.008 245.675 126.667 259.667 126.667C273.658 126.667 285 138.008 285 152C285 165.992 273.658 177.333 259.667 177.333Z" fill="#EAEAEA"/>
<path fill-rule="evenodd" clip-rule="evenodd" d="M31.6667 152C31.6667 158.996 37.3378 164.667 44.3333 164.667C51.3289 164.667 57 158.996 57 152C57 145.004 51.3289 139.333 44.3333 139.333C37.3378 139.333 31.6667 145.004 31.6667 152ZM44.3333 177.333C30.3421 177.333 19 165.992 19 152C19 138.008 30.3421 126.667 44.3333 126.667C58.3246 126.667 69.6667 138.008 69.6667 152C69.6667 165.992 58.3246 177.333 44.3333 177.333Z" fill="#EAEAEA"/>
<path fill-rule="evenodd" clip-rule="evenodd" d="M107.667 88.6667C107.667 95.6625 113.338 101.333 120.333 101.333C127.329 101.333 133 95.6625 133 88.6667C133 81.6709 127.329 76 120.333 76C113.338 76 107.667 81.6709 107.667 88.6667ZM120.333 114C106.342 114 95 102.658 95 88.6667C95 74.6751 106.342 63.3333 120.333 63.3333C134.325 63.3333 145.667 74.6751 145.667 88.6667C145.667 102.658 134.325 114 120.333 114Z" fill="#EAEAEA"/>
<path fill-rule="evenodd" clip-rule="evenodd" d="M63.3333 145.667H240.667V158.333H63.3333V145.667Z" fill="#EAEAEA"/>
<path fill-rule="evenodd" clip-rule="evenodd" d="M139.333 82.3333H164.667C182.156 82.3333 196.333 96.5111 196.333 114V152H183.667V114C183.667 103.507 175.16 95 164.667 95H139.333V82.3333Z" fill="#EAEAEA"/>
<path fill-rule="evenodd" clip-rule="evenodd" d="M88.6667 215.333C88.6667 208.338 94.3378 202.667 101.333 202.667C108.329 202.667 114 208.338 114 215.333C114 222.329 108.329 228 101.333 228C94.3378 228 88.6667 222.329 88.6667 215.333ZM101.333 190C87.3421 190 76 201.342 76 215.333C76 229.325 87.3421 240.667 101.333 240.667C115.325 240.667 126.667 229.325 126.667 215.333C126.667 201.342 115.325 190 101.333 190Z" fill="#EAEAEA"/>
<path fill-rule="evenodd" clip-rule="evenodd" d="M120.333 221.667H145.667C163.156 221.667 177.333 207.489 177.333 190V152H164.667V190C164.667 200.494 156.16 209 145.667 209H120.333V221.667Z" fill="#EAEAEA"/>
</svg>
